<svg width="28" height="34" viewBox="0 0 28 34" fill="none" xmlns="http://www.w3.org/2000/svg">
<path d="M13.9196 0H13.8192L0.269043 1.39589V26.0235L13.8192 34L27.269 26.0235V1.39589L13.9196 0ZM25.362 12.0645L13.8192 5.28446V5.18475H13.7189L13.6185 5.08504V5.18475L2.17611 12.0645V3.09091L13.7189 1.89443L25.362 3.09091V12.0645ZM13.7189 6.78006L25.2616 13.4604L20.7449 16.0528L13.6185 11.8651V13.261L19.5404 16.7507L18.6371 17.2493L13.6185 14.2581V15.654L17.4326 17.9472L16.6296 18.4457L13.6185 16.651V18.0469L15.5255 19.1437L13.7189 20.2405L2.27648 13.5601L13.7189 6.78006ZM2.17611 15.0557L13.6185 21.8358V22.8328L5.68912 18.1466V19.5425L13.7189 24.3284V25.4252L5.68912 20.739V22.1349L13.7189 26.9208L21.849 22.0352V16.8504L25.2616 14.8563V24.827L13.7189 31.7067L2.17611 24.9267V15.0557Z" fill="#63D1BB"/>
</svg>
